<?xml version="1.0" encoding="UTF-8"?>
<svg id="_パス" xmlns="http://www.w3.org/2000/svg" viewBox="0 0 567.05 201.74">
    <defs>
        <style>.cls-1{fill:none;}</style>
    </defs>
    <path class="cls-1" d="M12.05,90.32s-18,15-10,42c0,0,25-61,34-44,0,0-11,38-10,41,0,0,27-57,36-44s-31,52-11,44l26-27s10-21,13-17c0,0-23,52-9,39l14-13,18-19s-23,46-10,36S227.05,18.32,194.05,1.32s-75,136-56,125,37-26,37-26l18-44s-37,76-19,68,35-36,35-36c0,0-16,46-5,37s26-26,26-26l-15-30-10,6s-27,3-35,0,75,13,75,13c0,0,33,9,45,1s40-4,40-4c0,0-45,12-30,40S418.05-7.68,384.05,4.32s-81,141-48,120,74-38,52-41-38,57-12,43,31-27,31-27c0,0-12.11,8.18-19.1,20.05-5.23,8.88-7.6,19.82,.1,30.95l3-30s32-29,33-39c0,0-8,17-5,22l3,5s-21,32-26,14c0,0,34,8,55-32,0,0-19,49,0,31s56-52,55-36c0,0-51,14-35,41l31-33s-41,131-64,105l86-107s-16,20-11,39c0,0,35-67,36-42,0,0-26,57-13,43s31-33,31-33l-111-29"/>
</svg>