<?xml version="1.0" encoding="UTF-8"?><svg id="_レイヤー_2" xmlns="http://www.w3.org/2000/svg" viewBox="0 0 567.19 203.89"><defs><style>.cls-1{fill:#fff;}</style></defs><g id="_レイヤー_1-2"><g><path class="cls-1" d="M26,132.34c-.9-3.59-1.43-6.99-.18-12.91,1.97-9.32,6.63-21.34,6.63-26.9,0-.72-.18-2.33-1.97-2.33-9.32,0-24.21,30.66-28.87,43.57-.18,0-.72,0-.9-.18-.36-4.12-.72-8.25-.72-12.01,0-10.58,.54-26.54,12.55-31.02,.36,0,.54,1.43,.18,1.79-2.87,3.23-4.48,5.38-5.38,11.48-.72,4.12-1.43,10.4-1.79,16.86,6.63-15.42,17.39-34.43,27.79-34.43,2.69,0,3.95,1.79,3.95,4.84,0,9.15-8.25,26.72-7.35,29.05q.18,.18,.36,.18c6.46-15.06,19.37-36.04,29.59-36.04,2.69,0,4.12,1.79,4.12,4.84,0,8.79-16.5,33.17-15.24,37.48,.72,2.15,23.13-18.11,30.66-27.44,.36-.36,1.08,.54,.9,.9-5.02,7.71-32.28,34.97-36.04,34.97-.9,0-1.08-.72-1.08-1.79,0-10.22,15.78-35.15,15.78-42.5,0-.72-.18-2.51-1.97-2.51-9.86,0-27.79,36.58-30.13,44.29-.18,.18-.9,0-.9-.18Z"/><path class="cls-1" d="M105.44,100.24c-4.48,6.1-20.8,29.59-28.69,29.59-3.95,0-5.56-5.38-5.56-8.43,0-5.92,5.2-19.55,10.94-29.77,1.61-2.87,4.3-5.38,8.25-6.81,.36,0,.54,1.43,.18,1.79-1.61,1.97-3.05,3.77-3.94,5.56-5.74,10.22-9.15,23.31-9.15,29.23,0,2.15,.54,3.41,1.79,3.41,6.46,0,30.31-33.53,32.28-35.68,.36,.72,.54,.9,1.08,1.43s2.33,1.25,1.26,3.77c-6.99,7.53-15.96,30.84-13.45,30.84,6.28,.72,25.82-19.9,30.66-26,.18-.36,1.26,.36,.9,.9-4.3,6.81-29.77,34.61-37.12,31.92-1.61-.54,3.23-16.14,11.3-31.56,0-.18-.54-.36-.72-.18Z"/><path class="cls-1" d="M185.77,78.18c-6.81,15.06-14.7,35.86-14.7,42.32,0,1.26,.36,1.97,1.25,1.97,6.63,0,24.75-17.39,29.41-23.31,.18-.36,1.26,.36,.9,.9-4.12,6.46-26.36,29.41-34.97,29.41-1.97,0-1.97-1.79-1.97-2.87,0-3.77,1.43-11.12,4.84-21.52,0-.18,.18-.36,.18-.54-10.4,12.73-24.93,24.75-34.43,24.75-6.81,0-9.5-5.92-9.5-14.7C126.77,83.92,172.32,0,193.66,0c4.3,0,6.28,4.66,6.28,8.79,0,34.07-55.95,82.85-65.45,91.27-1.08,4.84-1.61,9.15-1.61,12.73,0,6.81,2.51,10.76,7.35,10.76,8.97,0,22.59-12.01,32.1-23.31l8.97-21.88c-4.3,0-8.79,0-13.63-.36,1.79-2.69,1.25-4.48,2.87-4.48,4.66,.72,8.43,1.26,12.19,1.43,4.48-10.58,8.43-20.08,8.61-20.8,.54,.72,.72,3.77,1.97,4.66,.54,.54,2.15,1.97,.54,4.12-1.61,2.15-3.94,6.63-6.63,12.37,4.66,.18,9.86,0,17.57-.54,.54,0,.72,1.08,.18,1.08-7.35,1.25-13.45,1.97-19.19,2.33Zm-50.57,18.83c12.01-10.76,58.64-56.31,58.64-86.61,0-4.12-1.97-5.92-4.12-5.92-1.43,0-2.87,.72-4.3,1.79-18.29,14.17-42.5,60.79-50.21,90.74Zm35.51,7.53c0-.18,.18-.18,.18-.18,0,0-.18,0-.18,.18Z"/><path class="cls-1" d="M206.39,85.54c1.26,1.61,4.3,3.05,4.3,5.2,0,.54-.18,1.08-.72,1.79-5.2,6.99-9.32,22.42-9.32,27.97,0,1.26,.18,1.97,1.08,1.97,6.63,0,23.85-17.39,28.51-23.31,.18-.36,1.25,.36,.9,.9-4.12,6.46-25.64,29.41-34.07,29.41-1.97,0-1.97-1.79-1.97-2.87,0-3.77,1.43-11.12,4.84-21.52,2.15-6.28,6.1-17.93,6.46-19.55Zm9.32-18.47c1.79,0,2.87,1.25,2.87,3.05,0,1.97-2.15,5.02-4.84,5.02-1.79,0-2.69-1.79-2.69-3.59,0-2.33,2.15-4.48,4.66-4.48Z"/><path class="cls-1" d="M290.31,89.12c.54,0,.9,1.08,.36,1.25-15.06,3.41-32.82,3.41-45.73,2.51,.72-2.87-.54-2.69,.72-7.35,13.09,2.51,26.54,4.3,44.65,3.59Z"/><path class="cls-1" d="M368.67,99.88c-9.5,14.35-30.31,29.41-38.55,29.41-4.3,0-6.63-5.92-6.63-14.7v-1.61c-6.81,6.99-17.75,16.14-25.46,16.14-4.12,0-6.99-3.05-6.99-7.53,0-12.73,18.65-37.12,39.09-35.86,13.09-35.86,42.14-82.49,58.46-82.49,2.87,0,3.77,2.33,3.77,5.38,0,27.44-45.19,80.34-62.22,97.19-.36,2.51-.54,4.84-.54,6.99,0,6.81,1.43,10.76,4.48,10.76,7.17,0,24.75-12.91,33.71-24.57,.36-.36,1.08,.54,.9,.9Zm-39.09-12.55c-20.26,2.69-31.74,25.1-31.74,33,0,2.33,1.26,3.23,3.95,3.23,6.63,0,15.96-7.53,21.88-13.45,.72-6.28,2.87-14.17,5.92-22.77Zm.9,15.78c16.86-15.96,55.05-67.78,55.05-90.38,0-2.87-.9-4.48-2.51-4.48-8.97,0-46.09,58.46-52.54,94.86Z"/><path class="cls-1" d="M408.48,100.06c-4.3,6.81-25.64,29.95-39.81,29.95-7.17,0-8.79-6.28-8.79-11.83,0-12.73,12.37-35.51,25.82-35.51,3.23,0,7.89,1.43,7.89,4.3,0,4.84-12.73,11.66-25.1,16.68-1.79,4.3-2.87,8.79-2.87,12.37,0,4.3,1.08,9.14,5.2,9.14,12.37,0,32.46-19.9,36.76-26,.18-.36,1.25,.36,.9,.9Zm-24.21-15.06c-4.48,0-10.58,7.71-14.52,16.14,11.3-4.66,17.93-9.5,17.93-13.09,0-1.79-1.97-3.05-3.41-3.05Z"/><path class="cls-1" d="M380.68,131.98c0-16.86,25.82-22.95,37.12-44.65,0-.54,.18-1.08,.36-1.61,1.43-1.61,3.59-3.05,6.99-3.77l.18,1.79c-3.23,3.05-4.12,5.92-4.12,8.79,0,4.48,2.51,8.79,2.51,13.63,0,6.99-3.95,13.63-9.5,17.93,11.12-5.2,24.39-17.93,29.77-24.93,.18-.36,1.25,.36,.9,.9-7.17,10.58-29.41,30.48-42.86,30.48-3.77-.54-6.46-5.2-6.99-8.97l.54-1.08c1.79,2.69,5.02,4.84,8.07,5.56,8.79-3.05,14.17-11.48,14.17-21.88,0-3.77-.54-8.61-.36-13.09-11.48,19.55-31.92,27.79-31.92,44.29,0,4.48,1.61,9.68,5.2,15.78,.18,.36-.9,.9-1.08,.72-6.28-8.25-8.97-14.52-8.97-19.9Z"/><path class="cls-1" d="M448.64,85.54c1.26,1.61,4.3,3.05,4.3,5.2,0,.54-.18,1.08-.72,1.79-5.2,6.99-9.33,22.42-9.33,27.97,0,1.26,.18,1.97,1.08,1.97,6.63,0,23.85-17.39,28.51-23.31,.18-.36,1.26,.36,.9,.9-4.12,6.46-25.64,29.41-34.07,29.41-1.97,0-1.97-1.79-1.97-2.87,0-3.77,1.43-11.12,4.84-21.52,2.15-6.28,6.1-17.93,6.46-19.55Zm9.33-18.47c1.79,0,2.87,1.25,2.87,3.05,0,1.97-2.15,5.02-4.84,5.02-1.79,0-2.69-1.79-2.69-3.59,0-2.33,2.15-4.48,4.66-4.48Z"/><path class="cls-1" d="M498.85,108.85c-19.55,48.06-36.04,95.04-54.33,95.04-3.77,0-6.63-2.69-7.53-5.02,0-.36,.54-.54,.9-.54,1.79,3.05,5.38,2.69,8.61,.54,19.01-12.37,37.12-60.97,49.85-96.12,0-.18-.54-.36-.72-.18-4.48,6.1-19.9,27.26-27.79,27.26-3.95,0-5.56-5.38-5.56-8.43,0-13.27,17.75-38.73,34.07-38.73,3.41,0,6.81,1.26,9.86,3.77,.18,.18-.18,1.43-.72,1.08-1.97-1.43-4.3-1.97-6.63-1.97-13.63,0-29.77,21.7-30.31,36.22,0,2.15,.54,3.05,1.79,3.05,6.46,0,29.59-31.2,31.56-33.35,.36,1.08,2.33,1.79,2.33,3.05,0,.36,0,.9-.36,1.61l-5.02,12.73Z"/><path class="cls-1" d="M512.83,131.62c-.72-2.87-1.08-6.28-1.08-10.04,0-10.58,.72-26.72,12.55-31.02,.36,0,.54,1.43,.18,1.79-2.87,3.23-4.48,5.38-5.38,11.48-.72,4.12-1.43,9.15-1.79,15.24,6.81-15.24,19.19-34.79,29.41-34.79,2.69,0,4.12,1.79,4.12,4.84,0,8.79-17.04,32.64-15.24,37.48,.72,2.15,22.95-18.11,30.66-27.44,.36-.36,1.08,.54,.9,.9-5.38,8.07-32.1,34.97-36.04,34.97-.9,0-1.08-.72-1.08-1.79,0-11.84,15.78-35.15,15.78-42.5,0-.72-.18-2.51-1.97-2.51-9.86,0-27.79,35.86-30.13,43.58-.18,0-.72,0-.9-.18Z"/></g></g></svg>